<?xml version="1.0" encoding="UTF-8" standalone="no"?>
<svg width="512" height="512" viewBox="0 0 512 512" fill="none" xmlns="http://www.w3.org/2000/svg">
  <!-- רקע עם פינות מעוגלות -->
  <rect width="512" height="512" rx="80" fill="white"/>
  
  <!-- דפוס רשת עדין -->
  <g stroke="#E0E0E0" stroke-width="1">
    <!-- קווים אופקיים -->
    <line x1="0" y1="32" x2="512" y2="32"/>
    <line x1="0" y1="64" x2="512" y2="64"/>
    <line x1="0" y1="96" x2="512" y2="96"/>
    <line x1="0" y1="128" x2="512" y2="128"/>
    <line x1="0" y1="160" x2="512" y2="160"/>
    <line x1="0" y1="192" x2="512" y2="192"/>
    <line x1="0" y1="224" x2="512" y2="224"/>
    <line x1="0" y1="256" x2="512" y2="256"/>
    <line x1="0" y1="288" x2="512" y2="288"/>
    <line x1="0" y1="320" x2="512" y2="320"/>
    <line x1="0" y1="352" x2="512" y2="352"/>
    <line x1="0" y1="384" x2="512" y2="384"/>
    <line x1="0" y1="416" x2="512" y2="416"/>
    <line x1="0" y1="448" x2="512" y2="448"/>
    <line x1="0" y1="480" x2="512" y2="480"/>
    
    <!-- קווים אנכיים -->
    <line x1="32" y1="0" x2="32" y2="512"/>
    <line x1="64" y1="0" x2="64" y2="512"/>
    <line x1="96" y1="0" x2="96" y2="512"/>
    <line x1="128" y1="0" x2="128" y2="512"/>
    <line x1="160" y1="0" x2="160" y2="512"/>
    <line x1="192" y1="0" x2="192" y2="512"/>
    <line x1="224" y1="0" x2="224" y2="512"/>
    <line x1="256" y1="0" x2="256" y2="512"/>
    <line x1="288" y1="0" x2="288" y2="512"/>
    <line x1="320" y1="0" x2="320" y2="512"/>
    <line x1="352" y1="0" x2="352" y2="512"/>
    <line x1="384" y1="0" x2="384" y2="512"/>
    <line x1="416" y1="0" x2="416" y2="512"/>
    <line x1="448" y1="0" x2="448" y2="512"/>
    <line x1="480" y1="0" x2="480" y2="512"/>
  </g>
  
  <!-- צורת ה-X בצבע כחול -->
  <g fill="#4DB2FF">
    <!-- חלק שמאלי עליון של ה-X -->
    <rect x="128" y="128" width="60" height="256" rx="16" transform="rotate(-45 128 128)"/>
    <!-- חלק ימני עליון של ה-X -->
    <rect x="384" y="128" width="60" height="256" rx="16" transform="rotate(45 384 128)"/>
  </g>
</svg> 